<?xml version="1.0" encoding="iso-8859-1"?>
<!-- Generator: Adobe Illustrator 21.1.0, SVG Export Plug-In . SVG Version: 6.00 Build 0)  -->
<svg version="1.1" xmlns="http://www.w3.org/2000/svg" xmlns:xlink="http://www.w3.org/1999/xlink" x="0px" y="0px"
	 viewBox="0 0 327.993 94.331" style="enable-background:new 0 0 327.993 94.331;" xml:space="preserve">
<g id="black-subbranding-oss">
	<g id="identity_14_">
		<g>
			<g id="emblem_4_">
				<polygon points="34.326,53.516 39.993,53.516 47.808,32.184 42.141,32.184 				"/>
				<path d="M56.47,24.237l-1.843,5.003c5.652,3.237,9.465,9.326,9.465,16.307c0,10.374-8.412,18.79-18.789,18.79
					c-10.377,0-18.789-8.416-18.789-18.79c0-10.374,8.412-18.791,18.789-18.791c1.509,0,2.974,0.184,4.38,0.522l1.832-4.976
					c-1.982-0.526-4.063-0.81-6.212-0.81c-13.284,0-24.055,10.767-24.055,24.055c0,13.287,10.771,24.057,24.055,24.057
					c13.287,0,24.056-10.769,24.056-24.057C69.358,36.295,64.133,28.265,56.47,24.237z"/>
				<polygon points="45.768,53.516 51.435,53.516 56.313,40.159 50.645,40.159 				"/>
			</g>
			<g id="text_4_">
				<path d="M90.54,53.562v-7.553h-6.282v7.553H80.29V35.406h3.968v6.972h6.282v-6.972h3.966v18.156H90.54z"/>
				<path d="M103.455,53.858c-0.379,0-0.814-0.051-1.142-0.106l-1.017,2.718l-2.138-0.697l0.97-2.641
					c-1.783-0.994-2.748-3.009-2.748-5.944c0-4.461,2.848-7.282,6.686-7.282c0.256,0,0.586,0,0.916,0.053l0.917-2.505l2.162,0.673
					l-0.891,2.421c1.655,0.913,2.949,2.687,2.949,6.049C110.119,50.959,107.245,53.858,103.455,53.858z M103.152,43.264
					c-1.092,0.268-2.113,1.185-2.113,3.468c0,0.994,0.155,1.992,0.535,2.547l2.212-6.067
					C103.586,43.184,103.355,43.212,103.152,43.264z M105.796,44.177l-2.312,6.301c0.226,0.026,0.481,0.045,0.734,0.026
					c1.223-0.195,2.264-1.296,2.264-3.639C106.481,45.684,106.254,44.877,105.796,44.177z"/>
				<path d="M117.749,60.23c-3.459,0-5.495-1.314-5.495-3.982c0-1.263,0.866-2.573,1.83-3.117c-0.734-0.37-1.217-1.128-1.217-2.071
					c0-1.076,0.66-2.096,1.548-2.469c-1.144-0.653-1.906-1.886-1.906-3.606c0-2.74,1.906-5.11,5.749-5.11
					c0.863,0,1.501,0.132,2.21,0.324h4.298v3.226h-1.448c0.227,0.274,0.355,0.698,0.355,1.18c0,2.907-1.829,4.791-5.469,4.791
					c-0.276,0-0.479-0.031-0.76-0.083c-0.307,0.16-0.458,0.458-0.458,0.671c0,0.566,0.383,0.645,1.806,0.699l1.705,0.081
					c2.72,0.112,4.346,1.292,4.346,3.983C124.843,57.652,122.097,60.23,117.749,60.23z M119.424,53.882l-2.003-0.05
					c-0.154-0.026-0.354,0-0.486-0.026c-0.559,0.482-0.891,1.075-0.891,1.671c0,0.993,0.842,1.658,2.267,1.658
					c1.804,0,2.718-0.802,2.718-1.855C121.029,54.534,120.597,53.939,119.424,53.882z M118.104,42.83
					c-1.194,0-1.879,0.789-1.879,1.882c0,1.191,0.634,1.913,1.906,1.913c1.169,0,1.882-0.697,1.882-1.856
					C120.013,43.618,119.376,42.83,118.104,42.83z"/>
				<path d="M129.982,53.858c-0.994,0-1.986-0.132-2.798-0.375l0.206-3.333c0.763,0.353,1.701,0.533,2.643,0.533
					c0.965,0,1.551-0.403,1.551-1.048c0-1.957-4.654-0.86-4.654-5.299c0-2.448,1.73-4.461,5.593-4.461
					c0.684,0,1.503,0.105,2.212,0.237l-0.125,3.202c-0.637-0.239-1.451-0.345-2.189-0.345c-0.99,0-1.448,0.404-1.448,1.018
					c0,1.78,4.731,1.027,4.731,5.291C135.704,52.111,133.413,53.858,129.982,53.858z"/>
				<path d="M145.95,53.562l-3.431-6.428v6.428h-3.866V33.93h3.866v11.644l3.202-5.374h4.757l-4.171,6.129l4.475,7.233H145.95z"/>
				<path d="M157.852,53.858c-3.662,0-6.077-1.908-6.077-6.67c0-4.358,2.824-7.282,6.687-7.282c3.84,0,6.053,2.257,6.053,6.69
					C164.514,50.926,161.665,53.858,157.852,53.858z M158.206,43.396c-1.221,0-2.416,1-2.416,3.336c0,2.448,0.739,3.577,2.342,3.577
					c1.399,0,2.362-1.235,2.362-3.472C160.495,44.556,159.809,43.396,158.206,43.396z"/>
				<path d="M167.389,53.562V33.93h3.864v19.632H167.389z"/>
				<path d="M185.625,47.914h-7.529c0.026,1.753,1.042,2.77,3.127,2.77c1.219,0,2.492-0.263,3.713-0.831l0.38,3.086
					c-1.45,0.623-3.176,0.919-4.729,0.919c-4.123,0-6.409-2.125-6.409-6.832c0-4.111,2.162-7.15,6.079-7.15
					c3.815,0,5.494,2.717,5.494,6.209C185.75,46.65,185.698,47.242,185.625,47.914z M180.155,42.865
					c-1.118,0-1.932,0.937-2.059,2.338h3.84C181.986,43.666,181.276,42.865,180.155,42.865z"/>
				<path d="M196.302,53.562v-8.495c0-1.079-0.283-1.718-1.169-1.718c-1.375,0-2.52,1.799-2.52,3.733v6.481h-3.864V40.199h3.61
					c0,0.509-0.024,1.452-0.154,2.097l0.029,0.024c0.787-1.404,2.186-2.415,4.195-2.415c2.818,0,3.737,1.933,3.737,4.249v9.407
					H196.302z"/>
				<path d="M211.941,38.635c-1.294,0-2.365-1.074-2.365-2.423c0-1.312,1.071-2.412,2.365-2.412c1.322,0,2.393,1.072,2.393,2.412
					C214.334,37.562,213.262,38.635,211.941,38.635z M210.01,53.562V40.199h3.865v13.362H210.01z"/>
				<path d="M230.81,53.911c-0.454,0-0.838-0.029-1.246-0.105l-0.84,2.614l-2.847-0.943l0.816-2.505
					c-2.57-1.426-3.77-4.439-3.77-8.26c0-5.911,3.796-9.652,8.523-9.652c0.331,0,0.662,0.033,1.016,0.084l0.787-2.479l2.878,0.921
					l-0.765,2.334c2.39,1.243,3.994,3.847,3.994,8.312C239.357,50.204,235.643,53.911,230.81,53.911z M230.075,38.964
					c-1.755,0.458-3.126,2.255-3.126,5.406c0,1.959,0.38,3.439,1.115,4.27l3.253-9.839
					C230.911,38.801,230.507,38.828,230.075,38.964z M234.04,40.038l-3.329,10.112c0.303,0.054,0.607,0.054,0.936,0.024
					c1.86-0.267,3.693-1.939,3.693-5.698C235.34,42.541,234.904,40.896,234.04,40.038z"/>
				<path d="M244.62,53.858c-0.993,0-1.982-0.132-2.798-0.375l0.204-3.333c0.761,0.353,1.702,0.533,2.641,0.533
					c0.971,0,1.553-0.403,1.553-1.048c0-1.957-4.654-0.86-4.654-5.299c0-2.448,1.731-4.461,5.597-4.461
					c0.684,0,1.502,0.105,2.209,0.237l-0.127,3.202c-0.634-0.239-1.447-0.345-2.186-0.345c-0.992,0-1.45,0.404-1.45,1.018
					c0,1.78,4.731,1.027,4.731,5.291C250.342,52.111,248.055,53.858,244.62,53.858z"/>
				<path d="M257.768,53.858c-2.922,0-3.865-1.024-3.865-4.299v-6.21h-1.906v-3.149h1.906v-3.952l3.891-1.103v5.055h2.72v3.149
					h-2.72v5.269c0,1.367,0.331,1.825,1.296,1.825c0.454,0,0.888-0.075,1.322-0.187l0.228,3.202
					C259.777,53.7,258.683,53.858,257.768,53.858z"/>
				<path d="M271.145,37.24c-0.456-0.162-0.965-0.245-1.397-0.245c-1.173,0-1.709,0.592-1.709,2.022v1.182h2.594v3.149h-2.594
					v10.214h-3.864V43.348h-1.932v-3.149h1.932v-1.156c0-3.549,1.5-5.351,5.189-5.351c0.656,0,1.377,0.057,2.033,0.213
					L271.145,37.24z"/>
				<path d="M278.161,53.858c-3.66,0-6.077-1.908-6.077-6.67c0-4.358,2.823-7.282,6.692-7.282c3.839,0,6.049,2.257,6.049,6.69
					C284.826,50.926,281.977,53.858,278.161,53.858z M278.52,43.396c-1.221,0-2.412,1-2.412,3.336c0,2.448,0.735,3.577,2.338,3.577
					c1.397,0,2.365-1.235,2.365-3.472C280.812,44.556,280.124,43.396,278.52,43.396z"/>
				<path d="M287.703,53.562V33.93h3.862v19.632H287.703z"/>
				<path d="M302.852,53.562c0-0.566,0.031-1.237,0.136-1.906h-0.052c-0.687,1.283-1.959,2.226-3.841,2.226
					c-3.051,0-4.604-2.447-4.604-6.264c0-4.383,2.47-7.688,6.793-7.688c0.43,0,0.862,0.029,1.268,0.079V33.93h3.867v19.632H302.852z
					 M302.553,43.348c-0.432-0.114-0.866-0.164-1.322-0.164c-1.502,0-2.649,1.022-2.649,4.003c0,2.238,0.563,3.29,1.757,3.29
					c1.298,0,2.213-1.618,2.213-3.853V43.348z"/>
			</g>
		</g>
	</g>
	<g>
		<g>
			<path d="M85.43,70.689h-3.246l-0.855,2.716h-1.155l3.015-8.908h1.276l3.015,8.908h-1.209L85.43,70.689z M85.145,69.779
				l-0.421-1.358c-0.326-0.991-0.611-1.969-0.896-3.001h-0.054c-0.271,1.032-0.557,2.01-0.883,3.001l-0.421,1.358H85.145z"/>
			<path d="M87.491,66.805h1.154l1.25,3.748c0.19,0.651,0.407,1.317,0.611,1.941h0.054c0.19-0.624,0.408-1.29,0.598-1.941
				l1.25-3.748h1.1l-2.336,6.6h-1.304L87.491,66.805z"/>
			<path d="M97.118,66.642c0.76,0,1.263,0.285,1.847,0.76l-0.054-1.127v-2.539h1.127v9.669h-0.923l-0.095-0.774h-0.041
				c-0.516,0.503-1.222,0.938-1.996,0.938c-1.657,0-2.73-1.249-2.73-3.449C94.252,67.973,95.61,66.642,97.118,66.642z
				 M97.226,72.631c0.611,0,1.141-0.299,1.684-0.909v-3.45c-0.557-0.502-1.059-0.692-1.603-0.692c-1.059,0-1.901,1.019-1.901,2.526
				C95.406,71.68,96.072,72.631,97.226,72.631z"/>
			<path d="M102.846,71.857c0.435,0,0.801,0.353,0.801,0.869c0,0.488-0.367,0.842-0.801,0.842c-0.448,0-0.815-0.354-0.815-0.842
				C102.031,72.21,102.398,71.857,102.846,71.857z"/>
			<path d="M111.358,64.645c-0.245-0.108-0.502-0.162-0.747-0.162c-0.625,0-0.923,0.435-0.923,1.276v1.046h1.398v0.909h-1.398v5.69
				h-1.114v-5.69h-0.896v-0.842l0.896-0.067v-1.046c0-1.345,0.611-2.187,1.928-2.187c0.408,0,0.801,0.095,1.1,0.217L111.358,64.645z
				"/>
			<path d="M114.779,66.642c1.616,0,3.056,1.263,3.056,3.477c0,2.187-1.439,3.449-3.056,3.449s-3.056-1.263-3.056-3.449
				C111.723,67.905,113.163,66.642,114.779,66.642z M114.779,72.644c1.141,0,1.901-1.019,1.901-2.525
				c0-1.521-0.761-2.554-1.901-2.554c-1.127,0-1.901,1.032-1.901,2.554C112.877,71.626,113.652,72.644,114.779,72.644z"/>
			<path d="M119.57,66.805h0.923L120.589,68h0.041c0.448-0.828,1.127-1.357,1.874-1.357c0.285,0,0.489,0.04,0.706,0.136
				l-0.217,0.978c-0.217-0.068-0.367-0.108-0.638-0.108c-0.557,0-1.222,0.407-1.67,1.521v4.237h-1.113V66.805z"/>
			<path d="M131.912,67.769c0.448,0.584,0.733,1.371,0.733,2.35c0,2.187-1.439,3.449-3.056,3.449c-0.692,0-1.358-0.231-1.888-0.666
				l-0.666,0.815l-0.502-0.394l0.733-0.883c-0.448-0.584-0.733-1.358-0.733-2.322c0-2.214,1.439-3.477,3.056-3.477
				c0.693,0,1.358,0.23,1.888,0.679l0.679-0.828l0.489,0.394L131.912,67.769z M130.853,68.082c-0.326-0.354-0.761-0.544-1.263-0.544
				c-1.127,0-1.956,1.032-1.956,2.526c0,0.611,0.109,1.127,0.312,1.534L130.853,68.082z M128.327,72.142
				c0.339,0.339,0.774,0.529,1.263,0.529c1.141,0,1.956-1.019,1.956-2.513c0-0.61-0.108-1.127-0.326-1.548L128.327,72.142z"/>
			<path d="M134.381,63.736h1.1v6.546h0.041l2.811-3.477h1.236l-2.213,2.647l2.512,3.952h-1.222l-1.929-3.178l-1.236,1.439v1.738
				h-1.1V63.736z"/>
			<path d="M143.423,66.642c1.616,0,3.056,1.263,3.056,3.477c0,2.187-1.439,3.449-3.056,3.449c-1.616,0-3.056-1.263-3.056-3.449
				C140.367,67.905,141.807,66.642,143.423,66.642z M143.423,72.644c1.141,0,1.901-1.019,1.901-2.525
				c0-1.521-0.761-2.554-1.901-2.554c-1.127,0-1.901,1.032-1.901,2.554C141.522,71.626,142.296,72.644,143.423,72.644z"/>
			<path d="M148.214,66.805h0.923l0.095,0.95h0.041c0.625-0.625,1.304-1.113,2.213-1.113c1.385,0,2.01,0.896,2.01,2.58v4.183h-1.114
				v-4.033c0-1.236-0.38-1.766-1.25-1.766c-0.679,0-1.141,0.354-1.806,1.019v4.78h-1.113V66.805z"/>
			<path d="M158.207,66.642c1.616,0,3.056,1.263,3.056,3.477c0,2.187-1.439,3.449-3.056,3.449s-3.056-1.263-3.056-3.449
				C155.151,67.905,156.59,66.642,158.207,66.642z M158.207,72.644c1.141,0,1.901-1.019,1.901-2.525
				c0-1.521-0.761-2.554-1.901-2.554c-1.127,0-1.901,1.032-1.901,2.554C156.305,71.626,157.08,72.644,158.207,72.644z"/>
			<path d="M162.998,66.805h0.923l0.095,0.95h0.041c0.57-0.625,1.263-1.113,2.051-1.113c1.005,0,1.548,0.475,1.819,1.263
				c0.692-0.747,1.372-1.263,2.173-1.263c1.358,0,2.01,0.896,2.01,2.58v4.183h-1.113v-4.033c0-1.236-0.394-1.766-1.222-1.766
				c-0.517,0-1.046,0.34-1.657,1.019v4.78h-1.113v-4.033c0-1.236-0.395-1.766-1.236-1.766c-0.488,0-1.046,0.34-1.657,1.019v4.78
				h-1.113V66.805z"/>
			<path d="M174.048,64.727c0-0.435,0.339-0.72,0.773-0.72s0.774,0.285,0.774,0.72c0,0.421-0.34,0.72-0.774,0.72
				S174.048,65.148,174.048,64.727z M174.252,66.805h1.114v6.6h-1.114V66.805z"/>
			<path d="M177.117,75.062c0.76-0.34,1.222-0.924,1.222-1.657c-0.041,0.014-0.095,0.014-0.136,0.014
				c-0.435,0-0.801-0.271-0.801-0.774c0-0.488,0.38-0.787,0.828-0.787c0.584,0,0.937,0.502,0.937,1.317
				c0,1.168-0.679,2.077-1.778,2.539L177.117,75.062z"/>
			<path d="M183.538,71.911c0.57,0.462,1.154,0.788,1.941,0.788c0.869,0,1.304-0.462,1.304-1.032c0-0.679-0.787-0.978-1.507-1.249
				c-0.938-0.34-1.97-0.788-1.97-1.901c0-1.06,0.842-1.874,2.268-1.874c0.829,0,1.549,0.339,2.051,0.747l-0.529,0.706
				c-0.448-0.34-0.924-0.584-1.508-0.584c-0.828,0-1.208,0.448-1.208,0.95c0,0.625,0.72,0.855,1.467,1.141
				c0.95,0.354,2.01,0.747,2.01,1.996c0,1.073-0.855,1.97-2.418,1.97c-0.937,0-1.833-0.394-2.458-0.91L183.538,71.911z"/>
			<path d="M190.515,73.962v2.228h-1.114v-9.384h0.924l0.095,0.76h0.041c0.598-0.502,1.331-0.923,2.104-0.923
				c1.698,0,2.607,1.317,2.607,3.367c0,2.241-1.344,3.559-2.852,3.559c-0.611,0-1.222-0.285-1.833-0.761L190.515,73.962z
				 M192.13,72.631c1.087,0,1.888-0.991,1.888-2.621c0-1.453-0.488-2.431-1.738-2.431c-0.557,0-1.113,0.312-1.765,0.896v3.463
				C191.112,72.441,191.696,72.631,192.13,72.631z"/>
			<path d="M196.936,66.805h0.924L197.955,68h0.041c0.448-0.828,1.127-1.357,1.874-1.357c0.285,0,0.489,0.04,0.706,0.136
				l-0.217,0.978c-0.218-0.068-0.367-0.108-0.639-0.108c-0.557,0-1.222,0.407-1.67,1.521v4.237h-1.114V66.805z"/>
			<path d="M205.043,69.222c0-0.842-0.286-1.657-1.358-1.657c-0.774,0-1.453,0.354-1.969,0.706l-0.448-0.773
				c0.61-0.394,1.534-0.855,2.594-0.855c1.616,0,2.295,1.072,2.295,2.716v4.047h-0.924l-0.095-0.788h-0.027
				c-0.639,0.517-1.371,0.951-2.187,0.951c-1.113,0-1.941-0.692-1.941-1.874C200.982,70.255,202.231,69.535,205.043,69.222z
				 M203.236,72.672c0.639,0,1.168-0.312,1.807-0.883v-1.833c-2.214,0.271-2.961,0.814-2.961,1.656
				C202.082,72.359,202.585,72.672,203.236,72.672z M202.585,64.782c0-0.747,0.529-1.25,1.263-1.25c0.747,0,1.276,0.503,1.276,1.25
				c0,0.76-0.529,1.263-1.276,1.263C203.114,66.045,202.585,65.542,202.585,64.782z M204.499,64.782
				c0-0.448-0.285-0.747-0.651-0.747c-0.354,0-0.652,0.299-0.652,0.747c0,0.461,0.299,0.76,0.652,0.76
				C204.213,65.542,204.499,65.243,204.499,64.782z"/>
			<path d="M208.257,63.736h1.101v6.546h0.04l2.812-3.477h1.236l-2.214,2.647l2.512,3.952h-1.222l-1.929-3.178l-1.235,1.439v1.738
				h-1.101V63.736z"/>
			<path d="M220.287,66.642c1.615,0,3.056,1.263,3.056,3.477c0,2.187-1.44,3.449-3.056,3.449c-1.616,0-3.056-1.263-3.056-3.449
				C217.231,67.905,218.67,66.642,220.287,66.642z M220.287,72.644c1.141,0,1.9-1.019,1.9-2.525c0-1.521-0.76-2.554-1.9-2.554
				c-1.128,0-1.901,1.032-1.901,2.554C218.385,71.626,219.159,72.644,220.287,72.644z"/>
			<path d="M225.54,73.174V73.12c-0.326-0.204-0.584-0.557-0.584-1.073c0-0.557,0.381-0.991,0.72-1.222V70.77
				c-0.435-0.353-0.855-0.991-0.855-1.779c0-1.439,1.141-2.349,2.485-2.349c0.366,0,0.692,0.067,0.937,0.163h2.296v0.855h-1.358
				c0.312,0.299,0.543,0.801,0.543,1.357c0,1.413-1.072,2.295-2.417,2.295c-0.326,0-0.692-0.081-0.991-0.23
				c-0.231,0.204-0.421,0.421-0.421,0.788c0,0.421,0.271,0.72,1.168,0.72h1.276c1.534,0,2.309,0.475,2.309,1.575
				c0,1.222-1.29,2.281-3.341,2.281c-1.616,0-2.729-0.639-2.729-1.779C224.576,74.111,224.942,73.582,225.54,73.174z
				 M227.468,75.673c1.263,0,2.091-0.651,2.091-1.344c0-0.611-0.475-0.815-1.33-0.815h-1.142c-0.258,0-0.57-0.027-0.855-0.108
				c-0.475,0.34-0.679,0.733-0.679,1.113C225.553,75.224,226.273,75.673,227.468,75.673z M228.704,68.991
				c0-0.964-0.624-1.534-1.398-1.534s-1.398,0.57-1.398,1.534c0,0.965,0.638,1.576,1.398,1.576S228.704,69.956,228.704,68.991z"/>
			<path d="M234.486,71.911c0.57,0.462,1.154,0.788,1.941,0.788c0.869,0,1.304-0.462,1.304-1.032c0-0.679-0.787-0.978-1.507-1.249
				c-0.938-0.34-1.97-0.788-1.97-1.901c0-1.06,0.842-1.874,2.268-1.874c0.829,0,1.549,0.339,2.051,0.747l-0.529,0.706
				c-0.448-0.34-0.924-0.584-1.508-0.584c-0.828,0-1.208,0.448-1.208,0.95c0,0.625,0.72,0.855,1.467,1.141
				c0.95,0.354,2.01,0.747,2.01,1.996c0,1.073-0.855,1.97-2.418,1.97c-0.937,0-1.833-0.394-2.458-0.91L234.486,71.911z"/>
			<path d="M244.085,69.222c0-0.842-0.285-1.657-1.358-1.657c-0.774,0-1.453,0.354-1.97,0.706l-0.447-0.773
				c0.61-0.394,1.534-0.855,2.594-0.855c1.616,0,2.295,1.072,2.295,2.716v4.047h-0.924l-0.095-0.788h-0.027
				c-0.639,0.517-1.371,0.951-2.187,0.951c-1.113,0-1.941-0.692-1.941-1.874C240.024,70.255,241.273,69.535,244.085,69.222z
				 M242.278,72.672c0.639,0,1.168-0.312,1.807-0.883v-1.833c-2.214,0.271-2.961,0.814-2.961,1.656
				C241.124,72.359,241.626,72.672,242.278,72.672z"/>
			<path d="M247.3,66.805h0.924l0.095,0.95h0.041c0.57-0.625,1.263-1.113,2.051-1.113c1.005,0,1.548,0.475,1.819,1.263
				c0.692-0.747,1.372-1.263,2.173-1.263c1.358,0,2.01,0.896,2.01,2.58v4.183h-1.113v-4.033c0-1.236-0.394-1.766-1.222-1.766
				c-0.517,0-1.046,0.34-1.657,1.019v4.78h-1.113v-4.033c0-1.236-0.395-1.766-1.236-1.766c-0.488,0-1.046,0.34-1.656,1.019v4.78
				H247.3V66.805z"/>
			<path d="M261.529,64.645c-0.245-0.108-0.503-0.162-0.747-0.162c-0.625,0-0.924,0.435-0.924,1.276v1.046h1.399v0.909h-1.399v5.69
				h-1.113v-5.69h-0.896v-0.842l0.896-0.067v-1.046c0-1.345,0.611-2.187,1.929-2.187c0.407,0,0.801,0.095,1.1,0.217L261.529,64.645z
				"/>
			<path d="M262.22,66.805h1.127v4.033c0,1.235,0.367,1.766,1.236,1.766c0.679,0,1.154-0.34,1.778-1.114v-4.685h1.114v6.6h-0.924
				l-0.095-1.032h-0.041c-0.611,0.72-1.263,1.195-2.173,1.195c-1.398,0-2.023-0.896-2.023-2.58V66.805z"/>
			<path d="M269.7,66.805h0.924l0.095,0.95h0.041c0.625-0.625,1.304-1.113,2.214-1.113c1.385,0,2.01,0.896,2.01,2.58v4.183h-1.113
				v-4.033c0-1.236-0.381-1.766-1.25-1.766c-0.679,0-1.141,0.354-1.806,1.019v4.78H269.7V66.805z"/>
			<path d="M277.126,66.805h0.924l0.095,0.95h0.041c0.625-0.625,1.304-1.113,2.214-1.113c1.385,0,2.01,0.896,2.01,2.58v4.183h-1.113
				v-4.033c0-1.236-0.381-1.766-1.25-1.766c-0.679,0-1.141,0.354-1.806,1.019v4.78h-1.114V66.805z"/>
			<path d="M284.376,71.911c0.57,0.462,1.154,0.788,1.941,0.788c0.869,0,1.304-0.462,1.304-1.032c0-0.679-0.787-0.978-1.507-1.249
				c-0.938-0.34-1.97-0.788-1.97-1.901c0-1.06,0.842-1.874,2.268-1.874c0.829,0,1.549,0.339,2.051,0.747l-0.529,0.706
				c-0.448-0.34-0.924-0.584-1.508-0.584c-0.828,0-1.208,0.448-1.208,0.95c0,0.625,0.72,0.855,1.467,1.141
				c0.95,0.354,2.01,0.747,2.01,1.996c0,1.073-0.855,1.97-2.418,1.97c-0.937,0-1.833-0.394-2.458-0.91L284.376,71.911z"/>
			<path d="M293.213,64.645c-0.245-0.108-0.503-0.162-0.747-0.162c-0.625,0-0.924,0.435-0.924,1.276v1.046h1.399v0.909h-1.399v5.69
				h-1.113v-5.69h-0.896v-0.842l0.896-0.067v-1.046c0-1.345,0.611-2.187,1.929-2.187c0.407,0,0.801,0.095,1.1,0.217L293.213,64.645z
				"/>
			<path d="M297.668,69.222c0-0.842-0.286-1.657-1.358-1.657c-0.774,0-1.453,0.354-1.969,0.706l-0.448-0.773
				c0.61-0.394,1.534-0.855,2.594-0.855c1.616,0,2.295,1.072,2.295,2.716v4.047h-0.924l-0.095-0.788h-0.027
				c-0.639,0.517-1.371,0.951-2.187,0.951c-1.113,0-1.941-0.692-1.941-1.874C293.607,70.255,294.856,69.535,297.668,69.222z
				 M295.861,72.672c0.639,0,1.168-0.312,1.807-0.883v-1.833c-2.214,0.271-2.961,0.814-2.961,1.656
				C294.707,72.359,295.21,72.672,295.861,72.672z"/>
			<path d="M301.344,73.174V73.12c-0.326-0.204-0.584-0.557-0.584-1.073c0-0.557,0.381-0.991,0.72-1.222V70.77
				c-0.435-0.353-0.855-0.991-0.855-1.779c0-1.439,1.141-2.349,2.485-2.349c0.366,0,0.692,0.067,0.937,0.163h2.296v0.855h-1.358
				c0.312,0.299,0.543,0.801,0.543,1.357c0,1.413-1.072,2.295-2.417,2.295c-0.326,0-0.692-0.081-0.991-0.23
				c-0.231,0.204-0.421,0.421-0.421,0.788c0,0.421,0.271,0.72,1.168,0.72h1.276c1.534,0,2.309,0.475,2.309,1.575
				c0,1.222-1.29,2.281-3.341,2.281c-1.616,0-2.729-0.639-2.729-1.779C300.38,74.111,300.747,73.582,301.344,73.174z
				 M303.273,75.673c1.263,0,2.091-0.651,2.091-1.344c0-0.611-0.475-0.815-1.33-0.815h-1.142c-0.258,0-0.57-0.027-0.855-0.108
				c-0.475,0.34-0.679,0.733-0.679,1.113C301.358,75.224,302.078,75.673,303.273,75.673z M304.508,68.991
				c0-0.964-0.624-1.534-1.398-1.534s-1.398,0.57-1.398,1.534c0,0.965,0.638,1.576,1.398,1.576S304.508,69.956,304.508,68.991z"/>
		</g>
	</g>
</g>
<g id="Layer_1">
</g>
</svg>
