<?xml version="1.0" encoding="iso-8859-1"?>
<!-- Generator: Adobe Illustrator 21.1.0, SVG Export Plug-In . SVG Version: 6.00 Build 0)  -->
<svg version="1.1" xmlns="http://www.w3.org/2000/svg" xmlns:xlink="http://www.w3.org/1999/xlink" x="0px" y="0px"
	 viewBox="0 0 327.993 94.331" style="enable-background:new 0 0 327.993 94.331;" xml:space="preserve">
<g id="black-subbranding-biblioteket">
	<g id="identity_1_">
		<g>
			<g id="emblem_5_">
				<polygon points="34.326,53.516 39.993,53.516 47.808,32.184 42.141,32.184 				"/>
				<path d="M56.47,24.237l-1.843,5.003c5.652,3.237,9.465,9.326,9.465,16.307c0,10.374-8.412,18.79-18.789,18.79
					c-10.377,0-18.789-8.416-18.789-18.79c0-10.374,8.412-18.791,18.789-18.791c1.509,0,2.974,0.184,4.38,0.522l1.832-4.976
					c-1.982-0.526-4.063-0.81-6.212-0.81c-13.284,0-24.055,10.767-24.055,24.055c0,13.287,10.771,24.057,24.055,24.057
					c13.287,0,24.056-10.769,24.056-24.057C69.358,36.295,64.133,28.265,56.47,24.237z"/>
				<polygon points="45.768,53.516 51.435,53.516 56.313,40.159 50.645,40.159 				"/>
			</g>
			<g id="text_5_">
				<path d="M90.54,53.562v-7.553h-6.282v7.553H80.29V35.406h3.968v6.972h6.282v-6.972h3.966v18.156H90.54z"/>
				<path d="M103.455,53.858c-0.379,0-0.814-0.051-1.142-0.106l-1.017,2.718l-2.138-0.697l0.97-2.641
					c-1.783-0.994-2.748-3.009-2.748-5.944c0-4.461,2.848-7.282,6.686-7.282c0.256,0,0.586,0,0.916,0.053l0.917-2.505l2.162,0.673
					l-0.891,2.421c1.655,0.913,2.949,2.687,2.949,6.049C110.119,50.959,107.245,53.858,103.455,53.858z M103.152,43.264
					c-1.092,0.268-2.113,1.185-2.113,3.468c0,0.994,0.155,1.992,0.535,2.547l2.212-6.067
					C103.586,43.184,103.355,43.212,103.152,43.264z M105.796,44.177l-2.312,6.301c0.226,0.026,0.481,0.045,0.734,0.026
					c1.223-0.195,2.264-1.296,2.264-3.639C106.481,45.684,106.254,44.877,105.796,44.177z"/>
				<path d="M117.749,60.23c-3.459,0-5.495-1.314-5.495-3.982c0-1.263,0.866-2.573,1.83-3.117c-0.734-0.37-1.217-1.128-1.217-2.071
					c0-1.076,0.66-2.096,1.548-2.469c-1.144-0.653-1.906-1.886-1.906-3.606c0-2.74,1.906-5.11,5.749-5.11
					c0.863,0,1.501,0.132,2.21,0.324h4.298v3.226h-1.448c0.227,0.274,0.355,0.698,0.355,1.18c0,2.907-1.829,4.791-5.469,4.791
					c-0.276,0-0.479-0.031-0.76-0.083c-0.307,0.16-0.458,0.458-0.458,0.671c0,0.566,0.383,0.645,1.806,0.699l1.705,0.081
					c2.72,0.112,4.346,1.292,4.346,3.983C124.843,57.652,122.097,60.23,117.749,60.23z M119.424,53.882l-2.003-0.05
					c-0.154-0.026-0.354,0-0.486-0.026c-0.559,0.482-0.891,1.075-0.891,1.671c0,0.993,0.842,1.658,2.267,1.658
					c1.804,0,2.718-0.802,2.718-1.855C121.029,54.534,120.597,53.939,119.424,53.882z M118.104,42.83
					c-1.194,0-1.879,0.789-1.879,1.882c0,1.191,0.634,1.913,1.906,1.913c1.169,0,1.882-0.697,1.882-1.856
					C120.013,43.618,119.376,42.83,118.104,42.83z"/>
				<path d="M129.982,53.858c-0.994,0-1.986-0.132-2.798-0.375l0.206-3.333c0.763,0.353,1.701,0.533,2.643,0.533
					c0.965,0,1.551-0.403,1.551-1.048c0-1.957-4.654-0.86-4.654-5.299c0-2.448,1.73-4.461,5.593-4.461
					c0.684,0,1.503,0.105,2.212,0.237l-0.125,3.202c-0.637-0.239-1.451-0.345-2.189-0.345c-0.99,0-1.448,0.404-1.448,1.018
					c0,1.78,4.731,1.027,4.731,5.291C135.704,52.111,133.413,53.858,129.982,53.858z"/>
				<path d="M145.95,53.562l-3.431-6.428v6.428h-3.866V33.93h3.866v11.644l3.202-5.374h4.757l-4.171,6.129l4.475,7.233H145.95z"/>
				<path d="M157.852,53.858c-3.662,0-6.077-1.908-6.077-6.67c0-4.358,2.824-7.282,6.687-7.282c3.84,0,6.053,2.257,6.053,6.69
					C164.514,50.926,161.665,53.858,157.852,53.858z M158.206,43.396c-1.221,0-2.416,1-2.416,3.336c0,2.448,0.739,3.577,2.342,3.577
					c1.399,0,2.362-1.235,2.362-3.472C160.495,44.556,159.809,43.396,158.206,43.396z"/>
				<path d="M167.389,53.562V33.93h3.864v19.632H167.389z"/>
				<path d="M185.625,47.914h-7.529c0.026,1.753,1.042,2.77,3.127,2.77c1.219,0,2.492-0.263,3.713-0.831l0.38,3.086
					c-1.45,0.623-3.176,0.919-4.729,0.919c-4.123,0-6.409-2.125-6.409-6.832c0-4.111,2.162-7.15,6.079-7.15
					c3.815,0,5.494,2.717,5.494,6.209C185.75,46.65,185.698,47.242,185.625,47.914z M180.155,42.865
					c-1.118,0-1.932,0.937-2.059,2.338h3.84C181.986,43.666,181.276,42.865,180.155,42.865z"/>
				<path d="M196.302,53.562v-8.495c0-1.079-0.283-1.718-1.169-1.718c-1.375,0-2.52,1.799-2.52,3.733v6.481h-3.864V40.199h3.61
					c0,0.509-0.024,1.452-0.154,2.097l0.029,0.024c0.787-1.404,2.186-2.415,4.195-2.415c2.818,0,3.737,1.933,3.737,4.249v9.407
					H196.302z"/>
				<path d="M211.941,38.635c-1.294,0-2.365-1.074-2.365-2.423c0-1.312,1.071-2.412,2.365-2.412c1.322,0,2.393,1.072,2.393,2.412
					C214.334,37.562,213.262,38.635,211.941,38.635z M210.01,53.562V40.199h3.865v13.362H210.01z"/>
				<path d="M230.81,53.911c-0.454,0-0.838-0.029-1.246-0.105l-0.84,2.614l-2.847-0.943l0.816-2.505
					c-2.57-1.426-3.77-4.439-3.77-8.26c0-5.911,3.796-9.652,8.523-9.652c0.331,0,0.662,0.033,1.016,0.084l0.787-2.479l2.878,0.921
					l-0.765,2.334c2.39,1.243,3.994,3.847,3.994,8.312C239.357,50.204,235.643,53.911,230.81,53.911z M230.075,38.964
					c-1.755,0.458-3.126,2.255-3.126,5.406c0,1.959,0.38,3.439,1.115,4.27l3.253-9.839
					C230.911,38.801,230.507,38.828,230.075,38.964z M234.04,40.038l-3.329,10.112c0.303,0.054,0.607,0.054,0.936,0.024
					c1.86-0.267,3.693-1.939,3.693-5.698C235.34,42.541,234.904,40.896,234.04,40.038z"/>
				<path d="M244.62,53.858c-0.993,0-1.982-0.132-2.798-0.375l0.204-3.333c0.761,0.353,1.702,0.533,2.641,0.533
					c0.971,0,1.553-0.403,1.553-1.048c0-1.957-4.654-0.86-4.654-5.299c0-2.448,1.731-4.461,5.597-4.461
					c0.684,0,1.502,0.105,2.209,0.237l-0.127,3.202c-0.634-0.239-1.447-0.345-2.186-0.345c-0.992,0-1.45,0.404-1.45,1.018
					c0,1.78,4.731,1.027,4.731,5.291C250.342,52.111,248.055,53.858,244.62,53.858z"/>
				<path d="M257.768,53.858c-2.922,0-3.865-1.024-3.865-4.299v-6.21h-1.906v-3.149h1.906v-3.952l3.891-1.103v5.055h2.72v3.149
					h-2.72v5.269c0,1.367,0.331,1.825,1.296,1.825c0.454,0,0.888-0.075,1.322-0.187l0.228,3.202
					C259.777,53.7,258.683,53.858,257.768,53.858z"/>
				<path d="M271.145,37.24c-0.456-0.162-0.965-0.245-1.397-0.245c-1.173,0-1.709,0.592-1.709,2.022v1.182h2.594v3.149h-2.594
					v10.214h-3.864V43.348h-1.932v-3.149h1.932v-1.156c0-3.549,1.5-5.351,5.189-5.351c0.656,0,1.377,0.057,2.033,0.213
					L271.145,37.24z"/>
				<path d="M278.161,53.858c-3.66,0-6.077-1.908-6.077-6.67c0-4.358,2.823-7.282,6.692-7.282c3.839,0,6.049,2.257,6.049,6.69
					C284.826,50.926,281.977,53.858,278.161,53.858z M278.52,43.396c-1.221,0-2.412,1-2.412,3.336c0,2.448,0.735,3.577,2.338,3.577
					c1.397,0,2.365-1.235,2.365-3.472C280.812,44.556,280.124,43.396,278.52,43.396z"/>
				<path d="M287.703,53.562V33.93h3.862v19.632H287.703z"/>
				<path d="M302.852,53.562c0-0.566,0.031-1.237,0.136-1.906h-0.052c-0.687,1.283-1.959,2.226-3.841,2.226
					c-3.051,0-4.604-2.447-4.604-6.264c0-4.383,2.47-7.688,6.793-7.688c0.43,0,0.862,0.029,1.268,0.079V33.93h3.867v19.632H302.852z
					 M302.553,43.348c-0.432-0.114-0.866-0.164-1.322-0.164c-1.502,0-2.649,1.022-2.649,4.003c0,2.238,0.563,3.29,1.757,3.29
					c1.298,0,2.213-1.618,2.213-3.853V43.348z"/>
			</g>
		</g>
	</g>
	<g>
		<g>
			<path d="M81.356,64.497h2.648c1.806,0,3.055,0.61,3.055,2.172c0,0.883-0.502,1.671-1.548,1.942v0.055
				c1.304,0.203,2.064,0.909,2.064,2.132c0,1.752-1.385,2.607-3.381,2.607h-2.838V64.497z M83.8,68.298
				c1.521,0,2.146-0.543,2.146-1.534c0-0.965-0.706-1.372-2.091-1.372h-1.372v2.906H83.8z M84.031,72.508
				c1.535,0,2.431-0.557,2.431-1.766c0-1.1-0.869-1.603-2.431-1.603h-1.548v3.368H84.031z"/>
			<path d="M89.025,64.727c0-0.435,0.34-0.72,0.774-0.72s0.774,0.285,0.774,0.72c0,0.421-0.339,0.72-0.774,0.72
				S89.025,65.148,89.025,64.727z M89.23,66.805h1.113v6.6H89.23V66.805z"/>
			<path d="M92.569,63.736h1.113v2.635l-0.027,1.194c0.597-0.529,1.331-0.923,2.064-0.923c1.711,0,2.621,1.317,2.621,3.354
				c0,2.254-1.345,3.571-2.852,3.571c-0.611,0-1.304-0.299-1.888-0.815H93.56l-0.095,0.652h-0.896V63.736z M95.298,72.631
				c1.086,0,1.888-0.991,1.888-2.621c0-1.453-0.489-2.431-1.738-2.431c-0.557,0-1.141,0.312-1.766,0.896v3.463
				C94.266,72.441,94.864,72.631,95.298,72.631z"/>
			<path d="M100.103,63.736h1.113v8.42c0,0.353,0.149,0.488,0.312,0.488c0.068,0,0.122,0,0.245-0.027l0.149,0.843
				c-0.149,0.067-0.339,0.108-0.638,0.108c-0.842,0-1.181-0.529-1.181-1.494V63.736z"/>
			<path d="M103.361,64.727c0-0.435,0.34-0.72,0.774-0.72s0.774,0.285,0.774,0.72c0,0.421-0.339,0.72-0.774,0.72
				S103.361,65.148,103.361,64.727z M103.565,66.805h1.113v6.6h-1.113V66.805z"/>
			<path d="M109.471,66.642c1.616,0,3.056,1.263,3.056,3.477c0,2.187-1.439,3.449-3.056,3.449c-1.616,0-3.056-1.263-3.056-3.449
				C106.415,67.905,107.855,66.642,109.471,66.642z M109.471,72.644c1.141,0,1.901-1.019,1.901-2.525
				c0-1.521-0.761-2.554-1.901-2.554c-1.127,0-1.901,1.032-1.901,2.554C107.569,71.626,108.344,72.644,109.471,72.644z"/>
			<path d="M114.452,67.714h-0.978v-0.842l1.032-0.067l0.136-1.848h0.937v1.848h1.779v0.909h-1.779v3.667
				c0,0.814,0.258,1.276,1.019,1.276c0.231,0,0.53-0.095,0.747-0.177l0.217,0.843c-0.367,0.122-0.815,0.244-1.222,0.244
				c-1.413,0-1.888-0.896-1.888-2.2V67.714z"/>
			<path d="M121.186,66.642c1.684,0,2.635,1.208,2.635,3.096c0,0.231-0.014,0.448-0.041,0.611h-4.455
				c0.082,1.426,0.937,2.322,2.2,2.322c0.625,0,1.154-0.204,1.643-0.516l0.394,0.733c-0.57,0.366-1.277,0.679-2.173,0.679
				c-1.766,0-3.165-1.29-3.165-3.449S119.679,66.642,121.186,66.642z M122.843,69.616c0-1.345-0.598-2.091-1.63-2.091
				c-0.923,0-1.766,0.76-1.901,2.091H122.843z"/>
			<path d="M125.448,63.736h1.1v6.546h0.041l2.811-3.477h1.236l-2.213,2.647l2.512,3.952h-1.222l-1.929-3.178l-1.236,1.439v1.738
				h-1.1V63.736z"/>
			<path d="M134.395,66.642c1.684,0,2.635,1.208,2.635,3.096c0,0.231-0.014,0.448-0.041,0.611h-4.455
				c0.082,1.426,0.937,2.322,2.2,2.322c0.625,0,1.154-0.204,1.643-0.516l0.394,0.733c-0.57,0.366-1.277,0.679-2.173,0.679
				c-1.766,0-3.165-1.29-3.165-3.449S132.888,66.642,134.395,66.642z M136.052,69.616c0-1.345-0.598-2.091-1.63-2.091
				c-0.923,0-1.766,0.76-1.901,2.091H136.052z"/>
			<path d="M138.657,67.714h-0.978v-0.842l1.032-0.067l0.136-1.848h0.937v1.848h1.779v0.909h-1.779v3.667
				c0,0.814,0.258,1.276,1.019,1.276c0.231,0,0.53-0.095,0.747-0.177l0.217,0.843c-0.367,0.122-0.815,0.244-1.222,0.244
				c-1.413,0-1.888-0.896-1.888-2.2V67.714z"/>
		</g>
	</g>
</g>
<g id="Layer_1">
</g>
</svg>
