<?xml version="1.0" encoding="iso-8859-1"?>
<!-- Generator: Adobe Illustrator 21.1.0, SVG Export Plug-In . SVG Version: 6.00 Build 0)  -->
<svg version="1.1" xmlns="http://www.w3.org/2000/svg" xmlns:xlink="http://www.w3.org/1999/xlink" x="0px" y="0px"
	 viewBox="0 0 327.993 94.331" style="enable-background:new 0 0 327.993 94.331;" xml:space="preserve">
<g id="white-subbranding-it">
	<rect y="0" style="display:none;" width="327.993" height="94.331"/>
	<g id="identity_4_">
		<g>
			<g id="emblem_5_">
				<polygon style="fill:#FFFFFF;" points="34.326,53.516 39.993,53.516 47.808,32.184 42.141,32.184 				"/>
				<path style="fill:#FFFFFF;" d="M56.47,24.237l-1.843,5.003c5.652,3.237,9.465,9.326,9.465,16.307
					c0,10.374-8.412,18.79-18.789,18.79c-10.377,0-18.789-8.416-18.789-18.79c0-10.374,8.412-18.791,18.789-18.791
					c1.509,0,2.974,0.184,4.38,0.522l1.832-4.976c-1.982-0.526-4.063-0.81-6.212-0.81c-13.284,0-24.055,10.767-24.055,24.055
					c0,13.287,10.771,24.057,24.055,24.057c13.287,0,24.056-10.769,24.056-24.057C69.358,36.295,64.133,28.265,56.47,24.237z"/>
				<polygon style="fill:#FFFFFF;" points="45.768,53.516 51.435,53.516 56.313,40.159 50.645,40.159 				"/>
			</g>
			<g id="text_5_">
				<path style="fill:#FFFFFF;" d="M90.54,53.562v-7.553h-6.282v7.553H80.29V35.406h3.968v6.972h6.282v-6.972h3.966v18.156H90.54z"
					/>
				<path style="fill:#FFFFFF;" d="M103.455,53.858c-0.379,0-0.814-0.051-1.142-0.106l-1.017,2.718l-2.138-0.697l0.97-2.641
					c-1.783-0.994-2.748-3.009-2.748-5.944c0-4.461,2.848-7.282,6.686-7.282c0.256,0,0.586,0,0.916,0.053l0.917-2.505l2.162,0.673
					l-0.891,2.421c1.655,0.913,2.949,2.687,2.949,6.049C110.119,50.959,107.245,53.858,103.455,53.858z M103.152,43.264
					c-1.092,0.268-2.113,1.185-2.113,3.468c0,0.994,0.155,1.992,0.535,2.547l2.212-6.067
					C103.586,43.184,103.355,43.212,103.152,43.264z M105.796,44.177l-2.312,6.301c0.226,0.026,0.481,0.045,0.734,0.026
					c1.223-0.195,2.264-1.296,2.264-3.639C106.481,45.684,106.254,44.877,105.796,44.177z"/>
				<path style="fill:#FFFFFF;" d="M117.749,60.23c-3.459,0-5.495-1.314-5.495-3.982c0-1.263,0.866-2.573,1.83-3.117
					c-0.734-0.37-1.217-1.128-1.217-2.071c0-1.076,0.66-2.096,1.548-2.469c-1.144-0.653-1.906-1.886-1.906-3.606
					c0-2.74,1.906-5.11,5.749-5.11c0.863,0,1.501,0.132,2.21,0.324h4.298v3.226h-1.448c0.227,0.274,0.355,0.698,0.355,1.18
					c0,2.907-1.829,4.791-5.469,4.791c-0.276,0-0.479-0.031-0.76-0.083c-0.307,0.16-0.458,0.458-0.458,0.671
					c0,0.566,0.383,0.645,1.806,0.699l1.705,0.081c2.72,0.112,4.346,1.292,4.346,3.983C124.843,57.652,122.097,60.23,117.749,60.23z
					 M119.424,53.882l-2.003-0.05c-0.154-0.026-0.354,0-0.486-0.026c-0.559,0.482-0.891,1.075-0.891,1.671
					c0,0.993,0.842,1.658,2.267,1.658c1.804,0,2.718-0.802,2.718-1.855C121.029,54.534,120.597,53.939,119.424,53.882z
					 M118.104,42.83c-1.194,0-1.879,0.789-1.879,1.882c0,1.191,0.634,1.913,1.906,1.913c1.169,0,1.882-0.697,1.882-1.856
					C120.013,43.618,119.376,42.83,118.104,42.83z"/>
				<path style="fill:#FFFFFF;" d="M129.982,53.858c-0.994,0-1.986-0.132-2.798-0.375l0.206-3.333
					c0.763,0.353,1.701,0.533,2.643,0.533c0.965,0,1.551-0.403,1.551-1.048c0-1.957-4.654-0.86-4.654-5.299
					c0-2.448,1.73-4.461,5.593-4.461c0.684,0,1.503,0.105,2.212,0.237l-0.125,3.202c-0.637-0.239-1.451-0.345-2.189-0.345
					c-0.99,0-1.448,0.404-1.448,1.018c0,1.78,4.731,1.027,4.731,5.291C135.704,52.111,133.413,53.858,129.982,53.858z"/>
				<path style="fill:#FFFFFF;" d="M145.95,53.562l-3.431-6.428v6.428h-3.866V33.93h3.866v11.644l3.202-5.374h4.757l-4.171,6.129
					l4.475,7.233H145.95z"/>
				<path style="fill:#FFFFFF;" d="M157.852,53.858c-3.662,0-6.077-1.908-6.077-6.67c0-4.358,2.824-7.282,6.687-7.282
					c3.84,0,6.053,2.257,6.053,6.69C164.514,50.926,161.665,53.858,157.852,53.858z M158.206,43.396c-1.221,0-2.416,1-2.416,3.336
					c0,2.448,0.739,3.577,2.342,3.577c1.399,0,2.362-1.235,2.362-3.472C160.495,44.556,159.809,43.396,158.206,43.396z"/>
				<path style="fill:#FFFFFF;" d="M167.389,53.562V33.93h3.864v19.632H167.389z"/>
				<path style="fill:#FFFFFF;" d="M185.625,47.914h-7.529c0.026,1.753,1.042,2.77,3.127,2.77c1.219,0,2.492-0.263,3.713-0.831
					l0.38,3.086c-1.45,0.623-3.176,0.919-4.729,0.919c-4.123,0-6.409-2.125-6.409-6.832c0-4.111,2.162-7.15,6.079-7.15
					c3.815,0,5.494,2.717,5.494,6.209C185.75,46.65,185.698,47.242,185.625,47.914z M180.155,42.865
					c-1.118,0-1.932,0.937-2.059,2.338h3.84C181.986,43.666,181.276,42.865,180.155,42.865z"/>
				<path style="fill:#FFFFFF;" d="M196.302,53.562v-8.495c0-1.079-0.283-1.718-1.169-1.718c-1.375,0-2.52,1.799-2.52,3.733v6.481
					h-3.864V40.199h3.61c0,0.509-0.024,1.452-0.154,2.097l0.029,0.024c0.787-1.404,2.186-2.415,4.195-2.415
					c2.818,0,3.737,1.933,3.737,4.249v9.407H196.302z"/>
				<path style="fill:#FFFFFF;" d="M211.941,38.635c-1.294,0-2.365-1.074-2.365-2.423c0-1.312,1.071-2.412,2.365-2.412
					c1.322,0,2.393,1.072,2.393,2.412C214.334,37.562,213.262,38.635,211.941,38.635z M210.01,53.562V40.199h3.865v13.362H210.01z"
					/>
				<path style="fill:#FFFFFF;" d="M230.81,53.911c-0.454,0-0.838-0.029-1.246-0.105l-0.84,2.614l-2.847-0.943l0.816-2.505
					c-2.57-1.426-3.77-4.439-3.77-8.26c0-5.911,3.796-9.652,8.523-9.652c0.331,0,0.662,0.033,1.016,0.084l0.787-2.479l2.878,0.921
					l-0.765,2.334c2.39,1.243,3.994,3.847,3.994,8.312C239.357,50.204,235.643,53.911,230.81,53.911z M230.075,38.964
					c-1.755,0.458-3.126,2.255-3.126,5.406c0,1.959,0.38,3.439,1.115,4.27l3.253-9.839
					C230.911,38.801,230.507,38.828,230.075,38.964z M234.04,40.038l-3.329,10.112c0.303,0.054,0.607,0.054,0.936,0.024
					c1.86-0.267,3.693-1.939,3.693-5.698C235.34,42.541,234.904,40.896,234.04,40.038z"/>
				<path style="fill:#FFFFFF;" d="M244.62,53.858c-0.993,0-1.982-0.132-2.798-0.375l0.204-3.333
					c0.761,0.353,1.702,0.533,2.641,0.533c0.971,0,1.553-0.403,1.553-1.048c0-1.957-4.654-0.86-4.654-5.299
					c0-2.448,1.731-4.461,5.597-4.461c0.684,0,1.502,0.105,2.209,0.237l-0.127,3.202c-0.634-0.239-1.447-0.345-2.186-0.345
					c-0.992,0-1.45,0.404-1.45,1.018c0,1.78,4.731,1.027,4.731,5.291C250.342,52.111,248.055,53.858,244.62,53.858z"/>
				<path style="fill:#FFFFFF;" d="M257.768,53.858c-2.922,0-3.865-1.024-3.865-4.299v-6.21h-1.906v-3.149h1.906v-3.952l3.891-1.103
					v5.055h2.72v3.149h-2.72v5.269c0,1.367,0.331,1.825,1.296,1.825c0.454,0,0.888-0.075,1.322-0.187l0.228,3.202
					C259.777,53.7,258.683,53.858,257.768,53.858z"/>
				<path style="fill:#FFFFFF;" d="M271.145,37.24c-0.456-0.162-0.965-0.245-1.397-0.245c-1.173,0-1.709,0.592-1.709,2.022v1.182
					h2.594v3.149h-2.594v10.214h-3.864V43.348h-1.932v-3.149h1.932v-1.156c0-3.549,1.5-5.351,5.189-5.351
					c0.656,0,1.377,0.057,2.033,0.213L271.145,37.24z"/>
				<path style="fill:#FFFFFF;" d="M278.161,53.858c-3.66,0-6.077-1.908-6.077-6.67c0-4.358,2.823-7.282,6.692-7.282
					c3.839,0,6.049,2.257,6.049,6.69C284.826,50.926,281.977,53.858,278.161,53.858z M278.52,43.396c-1.221,0-2.412,1-2.412,3.336
					c0,2.448,0.735,3.577,2.338,3.577c1.397,0,2.365-1.235,2.365-3.472C280.812,44.556,280.124,43.396,278.52,43.396z"/>
				<path style="fill:#FFFFFF;" d="M287.703,53.562V33.93h3.862v19.632H287.703z"/>
				<path style="fill:#FFFFFF;" d="M302.852,53.562c0-0.566,0.031-1.237,0.136-1.906h-0.052c-0.687,1.283-1.959,2.226-3.841,2.226
					c-3.051,0-4.604-2.447-4.604-6.264c0-4.383,2.47-7.688,6.793-7.688c0.43,0,0.862,0.029,1.268,0.079V33.93h3.867v19.632H302.852z
					 M302.553,43.348c-0.432-0.114-0.866-0.164-1.322-0.164c-1.502,0-2.649,1.022-2.649,4.003c0,2.238,0.563,3.29,1.757,3.29
					c1.298,0,2.213-1.618,2.213-3.853V43.348z"/>
			</g>
		</g>
	</g>
	<g>
		<g>
			<path style="fill:#FFFFFF;" d="M85.43,70.689h-3.246l-0.855,2.716h-1.155l3.015-8.908h1.276l3.015,8.908h-1.209L85.43,70.689z
				 M85.145,69.779l-0.421-1.358c-0.326-0.991-0.611-1.969-0.896-3.001h-0.054c-0.271,1.032-0.557,2.01-0.883,3.001l-0.421,1.358
				H85.145z"/>
			<path style="fill:#FFFFFF;" d="M87.491,66.805h1.154l1.25,3.748c0.19,0.651,0.407,1.317,0.611,1.941h0.054
				c0.19-0.624,0.408-1.29,0.598-1.941l1.25-3.748h1.1l-2.336,6.6h-1.304L87.491,66.805z"/>
			<path style="fill:#FFFFFF;" d="M97.118,66.642c0.76,0,1.263,0.285,1.847,0.76l-0.054-1.127v-2.539h1.127v9.669h-0.923
				l-0.095-0.774h-0.041c-0.516,0.503-1.222,0.938-1.996,0.938c-1.657,0-2.73-1.249-2.73-3.449
				C94.252,67.973,95.61,66.642,97.118,66.642z M97.226,72.631c0.611,0,1.141-0.299,1.684-0.909v-3.45
				c-0.557-0.502-1.059-0.692-1.603-0.692c-1.059,0-1.901,1.019-1.901,2.526C95.406,71.68,96.072,72.631,97.226,72.631z"/>
			<path style="fill:#FFFFFF;" d="M102.846,71.857c0.435,0,0.801,0.353,0.801,0.869c0,0.488-0.367,0.842-0.801,0.842
				c-0.448,0-0.815-0.354-0.815-0.842C102.031,72.21,102.398,71.857,102.846,71.857z"/>
			<path style="fill:#FFFFFF;" d="M111.358,64.645c-0.245-0.108-0.502-0.162-0.747-0.162c-0.625,0-0.923,0.435-0.923,1.276v1.046
				h1.398v0.909h-1.398v5.69h-1.114v-5.69h-0.896v-0.842l0.896-0.067v-1.046c0-1.345,0.611-2.187,1.928-2.187
				c0.408,0,0.801,0.095,1.1,0.217L111.358,64.645z"/>
			<path style="fill:#FFFFFF;" d="M114.779,66.642c1.616,0,3.056,1.263,3.056,3.477c0,2.187-1.439,3.449-3.056,3.449
				s-3.056-1.263-3.056-3.449C111.723,67.905,113.163,66.642,114.779,66.642z M114.779,72.644c1.141,0,1.901-1.019,1.901-2.525
				c0-1.521-0.761-2.554-1.901-2.554c-1.127,0-1.901,1.032-1.901,2.554C112.877,71.626,113.652,72.644,114.779,72.644z"/>
			<path style="fill:#FFFFFF;" d="M119.57,66.805h0.923L120.589,68h0.041c0.448-0.828,1.127-1.357,1.874-1.357
				c0.285,0,0.489,0.04,0.706,0.136l-0.217,0.978c-0.217-0.068-0.367-0.108-0.638-0.108c-0.557,0-1.222,0.407-1.67,1.521v4.237
				h-1.113V66.805z"/>
			<path style="fill:#FFFFFF;" d="M126.819,64.727c0-0.435,0.34-0.72,0.774-0.72c0.435,0,0.774,0.285,0.774,0.72
				c0,0.421-0.339,0.72-0.774,0.72C127.159,65.447,126.819,65.148,126.819,64.727z M127.023,66.805h1.113v6.6h-1.113V66.805z"/>
			<path style="fill:#FFFFFF;" d="M130.362,66.805h0.923l0.095,0.95h0.041c0.625-0.625,1.304-1.113,2.213-1.113
				c1.385,0,2.01,0.896,2.01,2.58v4.183h-1.114v-4.033c0-1.236-0.38-1.766-1.25-1.766c-0.679,0-1.141,0.354-1.806,1.019v4.78h-1.113
				V66.805z"/>
			<path style="fill:#FFFFFF;" d="M140.762,64.645c-0.245-0.108-0.503-0.162-0.747-0.162c-0.625,0-0.923,0.435-0.923,1.276v1.046
				h1.398v0.909h-1.398v5.69h-1.114v-5.69h-0.896v-0.842l0.896-0.067v-1.046c0-1.345,0.611-2.187,1.928-2.187
				c0.408,0,0.801,0.095,1.1,0.217L140.762,64.645z"/>
			<path style="fill:#FFFFFF;" d="M144.183,66.642c1.616,0,3.056,1.263,3.056,3.477c0,2.187-1.439,3.449-3.056,3.449
				c-1.616,0-3.056-1.263-3.056-3.449C141.127,67.905,142.567,66.642,144.183,66.642z M144.183,72.644
				c1.141,0,1.901-1.019,1.901-2.525c0-1.521-0.761-2.554-1.901-2.554c-1.127,0-1.901,1.032-1.901,2.554
				C142.281,71.626,143.056,72.644,144.183,72.644z"/>
			<path style="fill:#FFFFFF;" d="M148.974,66.805h0.923L149.993,68h0.041c0.448-0.828,1.127-1.357,1.874-1.357
				c0.285,0,0.489,0.04,0.706,0.136l-0.217,0.978c-0.217-0.068-0.367-0.108-0.638-0.108c-0.557,0-1.222,0.407-1.67,1.521v4.237
				h-1.113V66.805z"/>
			<path style="fill:#FFFFFF;" d="M153.685,66.805h0.923l0.095,0.95h0.041c0.57-0.625,1.263-1.113,2.051-1.113
				c1.005,0,1.548,0.475,1.82,1.263c0.692-0.747,1.372-1.263,2.173-1.263c1.358,0,2.01,0.896,2.01,2.58v4.183h-1.114v-4.033
				c0-1.236-0.394-1.766-1.222-1.766c-0.516,0-1.045,0.34-1.657,1.019v4.78h-1.114v-4.033c0-1.236-0.394-1.766-1.236-1.766
				c-0.489,0-1.045,0.34-1.657,1.019v4.78h-1.113V66.805z"/>
			<path style="fill:#FFFFFF;" d="M168.673,69.222c0-0.842-0.286-1.657-1.358-1.657c-0.774,0-1.453,0.354-1.969,0.706l-0.448-0.773
				c0.61-0.394,1.534-0.855,2.594-0.855c1.616,0,2.295,1.072,2.295,2.716v4.047h-0.924l-0.095-0.788h-0.027
				c-0.639,0.517-1.371,0.951-2.187,0.951c-1.113,0-1.942-0.692-1.942-1.874C164.612,70.255,165.862,69.535,168.673,69.222z
				 M166.867,72.672c0.639,0,1.168-0.312,1.807-0.883v-1.833c-2.214,0.271-2.961,0.814-2.961,1.656
				C165.712,72.359,166.215,72.672,166.867,72.672z"/>
			<path style="fill:#FFFFFF;" d="M171.712,71.911c0.57,0.462,1.154,0.788,1.941,0.788c0.869,0,1.304-0.462,1.304-1.032
				c0-0.679-0.787-0.978-1.507-1.249c-0.938-0.34-1.97-0.788-1.97-1.901c0-1.06,0.842-1.874,2.268-1.874
				c0.829,0,1.549,0.339,2.051,0.747l-0.529,0.706c-0.448-0.34-0.924-0.584-1.508-0.584c-0.828,0-1.208,0.448-1.208,0.95
				c0,0.625,0.72,0.855,1.467,1.141c0.95,0.354,2.01,0.747,2.01,1.996c0,1.073-0.855,1.97-2.418,1.97
				c-0.937,0-1.833-0.394-2.458-0.91L171.712,71.911z"/>
			<path style="fill:#FFFFFF;" d="M177.59,66.805h1.114v7.347c0,1.345-0.489,2.2-1.807,2.2c-0.407,0-0.747-0.082-0.978-0.177
				l0.23-0.842c0.163,0.054,0.394,0.108,0.625,0.108c0.651,0,0.814-0.489,0.814-1.29V66.805z M177.387,64.727
				c0-0.435,0.339-0.72,0.773-0.72c0.421,0,0.761,0.285,0.761,0.72c0,0.421-0.34,0.72-0.761,0.72
				C177.726,65.447,177.387,65.148,177.387,64.727z"/>
			<path style="fill:#FFFFFF;" d="M183.498,66.642c1.615,0,3.056,1.263,3.056,3.477c0,2.187-1.44,3.449-3.056,3.449
				c-1.616,0-3.056-1.263-3.056-3.449C180.442,67.905,181.881,66.642,183.498,66.642z M183.498,72.644c1.141,0,1.9-1.019,1.9-2.525
				c0-1.521-0.76-2.554-1.9-2.554c-1.128,0-1.901,1.032-1.901,2.554C181.596,71.626,182.37,72.644,183.498,72.644z"/>
			<path style="fill:#FFFFFF;" d="M188.288,66.805h0.924l0.095,0.95h0.041c0.625-0.625,1.304-1.113,2.214-1.113
				c1.385,0,2.01,0.896,2.01,2.58v4.183h-1.113v-4.033c0-1.236-0.381-1.766-1.25-1.766c-0.679,0-1.141,0.354-1.806,1.019v4.78
				h-1.114V66.805z"/>
			<path style="fill:#FFFFFF;" d="M195.538,71.911c0.57,0.462,1.154,0.788,1.941,0.788c0.869,0,1.304-0.462,1.304-1.032
				c0-0.679-0.787-0.978-1.507-1.249c-0.938-0.34-1.97-0.788-1.97-1.901c0-1.06,0.842-1.874,2.268-1.874
				c0.829,0,1.549,0.339,2.051,0.747l-0.529,0.706c-0.448-0.34-0.924-0.584-1.508-0.584c-0.828,0-1.208,0.448-1.208,0.95
				c0,0.625,0.72,0.855,1.467,1.141c0.95,0.354,2.01,0.747,2.01,1.996c0,1.073-0.855,1.97-2.418,1.97
				c-0.937,0-1.833-0.394-2.458-0.91L195.538,71.911z"/>
			<path style="fill:#FFFFFF;" d="M201.592,67.714h-0.978v-0.842l1.032-0.067l0.136-1.848h0.937v1.848h1.779v0.909h-1.779v3.667
				c0,0.814,0.258,1.276,1.019,1.276c0.231,0,0.53-0.095,0.747-0.177l0.218,0.843c-0.367,0.122-0.815,0.244-1.223,0.244
				c-1.412,0-1.888-0.896-1.888-2.2V67.714z"/>
			<path style="fill:#FFFFFF;" d="M208.327,66.642c1.685,0,2.635,1.208,2.635,3.096c0,0.231-0.014,0.448-0.041,0.611h-4.454
				c0.082,1.426,0.938,2.322,2.2,2.322c0.625,0,1.154-0.204,1.644-0.516l0.394,0.733c-0.57,0.366-1.276,0.679-2.173,0.679
				c-1.766,0-3.164-1.29-3.164-3.449S206.82,66.642,208.327,66.642z M209.984,69.616c0-1.345-0.598-2.091-1.63-2.091
				c-0.924,0-1.766,0.76-1.901,2.091H209.984z"/>
			<path style="fill:#FFFFFF;" d="M212.588,63.736h1.101v6.546h0.04l2.812-3.477h1.235l-2.213,2.647l2.512,3.952h-1.222
				l-1.929-3.178l-1.235,1.439v1.738h-1.101V63.736z"/>
			<path style="fill:#FFFFFF;" d="M219.308,66.805h0.924l0.095,0.95h0.041c0.625-0.625,1.304-1.113,2.214-1.113
				c1.385,0,2.01,0.896,2.01,2.58v4.183h-1.113v-4.033c0-1.236-0.381-1.766-1.25-1.766c-0.679,0-1.141,0.354-1.806,1.019v4.78
				h-1.114V66.805z"/>
			<path style="fill:#FFFFFF;" d="M229.301,66.642c1.615,0,3.055,1.263,3.055,3.477c0,2.187-1.439,3.449-3.055,3.449
				c-1.616,0-3.056-1.263-3.056-3.449C226.246,67.905,227.685,66.642,229.301,66.642z M229.301,72.644c1.141,0,1.9-1.019,1.9-2.525
				c0-1.521-0.76-2.554-1.9-2.554c-1.128,0-1.901,1.032-1.901,2.554C227.4,71.626,228.173,72.644,229.301,72.644z"/>
			<path style="fill:#FFFFFF;" d="M234.091,63.736h1.114v8.42c0,0.353,0.149,0.488,0.312,0.488c0.068,0,0.123,0,0.245-0.027
				l0.149,0.843c-0.149,0.067-0.34,0.108-0.639,0.108c-0.842,0-1.182-0.529-1.182-1.494V63.736z"/>
			<path style="fill:#FFFFFF;" d="M240.121,66.642c1.615,0,3.056,1.263,3.056,3.477c0,2.187-1.44,3.449-3.056,3.449
				c-1.616,0-3.056-1.263-3.056-3.449C237.065,67.905,238.504,66.642,240.121,66.642z M240.121,72.644c1.141,0,1.9-1.019,1.9-2.525
				c0-1.521-0.76-2.554-1.9-2.554c-1.128,0-1.901,1.032-1.901,2.554C238.219,71.626,238.993,72.644,240.121,72.644z"/>
			<path style="fill:#FFFFFF;" d="M245.373,73.174V73.12c-0.326-0.204-0.584-0.557-0.584-1.073c0-0.557,0.381-0.991,0.72-1.222
				V70.77c-0.435-0.353-0.855-0.991-0.855-1.779c0-1.439,1.141-2.349,2.485-2.349c0.366,0,0.692,0.067,0.937,0.163h2.296v0.855
				h-1.358c0.312,0.299,0.543,0.801,0.543,1.357c0,1.413-1.072,2.295-2.417,2.295c-0.326,0-0.692-0.081-0.991-0.23
				c-0.231,0.204-0.421,0.421-0.421,0.788c0,0.421,0.271,0.72,1.168,0.72h1.276c1.534,0,2.309,0.475,2.309,1.575
				c0,1.222-1.29,2.281-3.341,2.281c-1.616,0-2.729-0.639-2.729-1.779C244.409,74.111,244.775,73.582,245.373,73.174z
				 M247.301,75.673c1.263,0,2.091-0.651,2.091-1.344c0-0.611-0.475-0.815-1.33-0.815h-1.142c-0.258,0-0.57-0.027-0.855-0.108
				c-0.475,0.34-0.679,0.733-0.679,1.113C245.386,75.224,246.106,75.673,247.301,75.673z M248.537,68.991
				c0-0.964-0.624-1.534-1.398-1.534s-1.398,0.57-1.398,1.534c0,0.965,0.638,1.576,1.398,1.576S248.537,69.956,248.537,68.991z"/>
			<path style="fill:#FFFFFF;" d="M251.549,64.727c0-0.435,0.339-0.72,0.773-0.72s0.774,0.285,0.774,0.72
				c0,0.421-0.34,0.72-0.774,0.72S251.549,65.148,251.549,64.727z M251.753,66.805h1.114v6.6h-1.114V66.805z"/>
		</g>
	</g>
</g>
<g id="Layer_1">
</g>
</svg>
